<svg id="Layer_1" data-name="Layer 1" xmlns="http://www.w3.org/2000/svg" viewBox="0 0 458.96 46.34"><defs><style>.cls-1{fill:#fff;}</style></defs><path class="cls-1" d="M26.52,22.77a22.57,22.57,0,0,1,1.54-8.13,22.92,22.92,0,0,1,4.48-7.3,21.51,21.51,0,0,1,7.17-5.18,22.32,22.32,0,0,1,9.6-2A21.6,21.6,0,0,1,60.38,2.93a17.76,17.76,0,0,1,7,7.17l-8.07,5.63A9.15,9.15,0,0,0,56.6,12a9.63,9.63,0,0,0-3.71-1.92,13.51,13.51,0,0,0-3.84-.58,10.48,10.48,0,0,0-6.66,2.05,12.32,12.32,0,0,0-3.9,5.18,16.88,16.88,0,0,0-1.28,6.4,16.11,16.11,0,0,0,1.47,6.79A12.73,12.73,0,0,0,42.84,35a10.63,10.63,0,0,0,6.34,1.92,14.05,14.05,0,0,0,3.9-.57,10.77,10.77,0,0,0,3.65-2.05,8.82,8.82,0,0,0,2.62-3.65l8.58,5.06a13.49,13.49,0,0,1-4.42,5.76,23.93,23.93,0,0,1-7,3.58,25.16,25.16,0,0,1-7.62,1.22,20.46,20.46,0,0,1-9-2,24,24,0,0,1-7.11-5.37,25.87,25.87,0,0,1-4.67-7.56A23.91,23.91,0,0,1,26.52,22.77Zm68,23.55a21.69,21.69,0,0,1-9.21-1.92,23.35,23.35,0,0,1-7.11-5.25,24.21,24.21,0,0,1-4.61-7.42A23.86,23.86,0,0,1,72,23.15a22.56,22.56,0,0,1,1.67-8.57A24.12,24.12,0,0,1,78.4,7.22a22.09,22.09,0,0,1,16.32-7,20.82,20.82,0,0,1,9.16,2A21.24,21.24,0,0,1,111,7.47,24.07,24.07,0,0,1,115.59,15a23,23,0,0,1,1.6,8.38A22.32,22.32,0,0,1,115.46,32a23.57,23.57,0,0,1-4.74,7.36,22.72,22.72,0,0,1-7.16,5.12A21.61,21.61,0,0,1,94.53,46.32Zm-11.84-23A16.66,16.66,0,0,0,84,29.94a12.29,12.29,0,0,0,4,5.05,10.71,10.71,0,0,0,6.53,2,10.43,10.43,0,0,0,6.59-2,12.32,12.32,0,0,0,4-5.19,17,17,0,0,0,1.34-6.59,15.63,15.63,0,0,0-1.41-6.59,11.77,11.77,0,0,0-4-5.06,11.84,11.84,0,0,0-13.12.13,12.45,12.45,0,0,0-4,5.12A17.19,17.19,0,0,0,82.69,23.28ZM160.2,45.94V18.86l-9.8,19.72h-5.76l-9.79-19.72V45.94H124.36V.5h11.39l11.77,23.74L159.36.5h11.33V45.94Zm19.22,0V.5h10.5V45.94ZM209.1,20v26H198.61V.5h8.32l21,26.75V.5h10.5V45.94H229.9Zm57.33,26.31A21.58,21.58,0,0,1,258,44.59a22.79,22.79,0,0,1-7-4.8,23.22,23.22,0,0,1-4.74-7.36,26.15,26.15,0,0,1-1.66-9.53,23.26,23.26,0,0,1,1.66-8.84,23.3,23.3,0,0,1,4.8-7.23A22.81,22.81,0,0,1,267.27.18a21.89,21.89,0,0,1,11,2.68,17.53,17.53,0,0,1,7.17,7.24L277.63,16a11.34,11.34,0,0,0-4.48-4.73,12.19,12.19,0,0,0-6.27-1.73,10.26,10.26,0,0,0-6.08,1.86,11.9,11.9,0,0,0-4.09,4.92,16.11,16.11,0,0,0-1.48,7,15.85,15.85,0,0,0,1.54,7A12.27,12.27,0,0,0,261,35.18a11.62,11.62,0,0,0,6.34,1.73q6.15,0,11.07-5.63V29.81h-8.83V22.19h17.54V45.94H278.4V41.46A17.07,17.07,0,0,1,266.43,46.26Zm69.82-32.45a6.55,6.55,0,0,0-1.35-1A25.27,25.27,0,0,0,332,11.38,19.27,19.27,0,0,0,328.25,10a15.3,15.3,0,0,0-4.1-.57c-3.76,0-5.63,1.25-5.63,3.77A3.35,3.35,0,0,0,321,16.5c1.66.64,4,1.4,7.1,2.3a40.32,40.32,0,0,1,7.49,2.82,11.87,11.87,0,0,1,4.93,4.16,11.91,11.91,0,0,1,1.73,6.78,13.91,13.91,0,0,1-1.41,6.53A12,12,0,0,1,337,43.38a17.91,17.91,0,0,1-5.5,2.36,27.47,27.47,0,0,1-6.28.71A37.43,37.43,0,0,1,314.93,45a34.29,34.29,0,0,1-9.15-4.16l4.61-9.16a8.58,8.58,0,0,0,1.66,1.22c.94.55,2.12,1.15,3.52,1.79a32.73,32.73,0,0,0,4.61,1.67,21.69,21.69,0,0,0,5.19.64q5.56,0,5.56-3.4a3,3,0,0,0-1.47-2.68,12.28,12.28,0,0,0-3.9-1.73l-5.63-1.73q-6.29-1.92-9.28-4.67T307.7,14.9a14,14,0,0,1,2.24-8.07,14.18,14.18,0,0,1,6.15-5A20.21,20.21,0,0,1,324.47.11a24.9,24.9,0,0,1,9.09,1.67,48.64,48.64,0,0,1,7.29,3.32Zm32,32.51A21.77,21.77,0,0,1,359,44.4a23.42,23.42,0,0,1-7.1-5.25,24.21,24.21,0,0,1-4.61-7.42,23.86,23.86,0,0,1-1.6-8.58,22.56,22.56,0,0,1,1.67-8.57,24.12,24.12,0,0,1,4.73-7.36,22,22,0,0,1,16.32-7,20.75,20.75,0,0,1,9.15,2,21.17,21.17,0,0,1,7.11,5.25A24.07,24.07,0,0,1,389.32,15a23,23,0,0,1,1.6,8.38A22.32,22.32,0,0,1,389.19,32a23.57,23.57,0,0,1-4.74,7.36,22.65,22.65,0,0,1-7.17,5.12A21.53,21.53,0,0,1,368.26,46.32Zm-11.84-23a16.82,16.82,0,0,0,1.34,6.66,12.31,12.31,0,0,0,4,5.05,10.68,10.68,0,0,0,6.52,2,10.44,10.44,0,0,0,6.6-2,12.22,12.22,0,0,0,4-5.19,16.79,16.79,0,0,0,1.35-6.59,15.63,15.63,0,0,0-1.41-6.59,11.84,11.84,0,0,0-4-5.06,11.84,11.84,0,0,0-13.12.13,12.45,12.45,0,0,0-4,5.12A17.19,17.19,0,0,0,356.42,23.28Zm60.47,23a21.71,21.71,0,0,1-9.22-1.92,23.3,23.3,0,0,1-7.1-5.25,23.64,23.64,0,0,1-6.21-16A22.55,22.55,0,0,1,396,14.58a24,24,0,0,1,4.74-7.36,22,22,0,0,1,16.32-7,20.75,20.75,0,0,1,9.15,2,21.24,21.24,0,0,1,7.1,5.25A23.88,23.88,0,0,1,437.94,15a22.8,22.8,0,0,1,1.6,8.38A22.14,22.14,0,0,1,437.81,32a23.54,23.54,0,0,1-4.73,7.36,22.88,22.88,0,0,1-7.17,5.12A21.57,21.57,0,0,1,416.89,46.32Zm-11.84-23a16.65,16.65,0,0,0,1.34,6.66,12.37,12.37,0,0,0,4,5.05A10.71,10.71,0,0,0,417,37a10.43,10.43,0,0,0,6.59-2,12.24,12.24,0,0,0,4-5.19,16.77,16.77,0,0,0,1.34-6.59,15.78,15.78,0,0,0-1.4-6.59,11.79,11.79,0,0,0-4-5.06,11.84,11.84,0,0,0-13.12.13,12.34,12.34,0,0,0-4,5.12A17,17,0,0,0,405.05,23.28ZM456.1,20v26H445.61V.5h8.32L475,27.25V.5h10.5V45.94H476.9Z" transform="translate(-26.52 -0.11)"/></svg>