<svg width="563" height="28" viewBox="0 0 563 28" fill="none" xmlns="http://www.w3.org/2000/svg">
<path d="M12.5 27.18C10.7 27.18 9.068 26.82 7.604 26.1C6.14 25.356 4.88 24.372 3.824 23.148C2.768 21.924 1.952 20.544 1.376 19.008C0.8 17.448 0.512 15.852 0.512 14.22C0.512 12.516 0.812 10.896 1.412 9.36C2.012 7.8 2.852 6.42 3.932 5.22C5.036 3.996 6.32 3.036 7.784 2.34C9.248 1.62 10.832 1.26 12.536 1.26C14.312 1.26 15.932 1.632 17.396 2.376C18.86 3.12 20.12 4.116 21.176 5.364C22.256 6.612 23.072 8.004 23.624 9.54C24.2 11.076 24.488 12.648 24.488 14.256C24.488 15.96 24.188 17.592 23.588 19.152C22.988 20.688 22.148 22.068 21.068 23.292C19.988 24.492 18.716 25.44 17.252 26.136C15.788 26.832 14.204 27.18 12.5 27.18ZM3.032 14.22C3.032 15.612 3.26 16.944 3.716 18.216C4.172 19.488 4.82 20.628 5.66 21.636C6.5 22.644 7.496 23.448 8.648 24.048C9.824 24.624 11.108 24.912 12.5 24.912C13.964 24.912 15.272 24.612 16.424 24.012C17.6 23.388 18.596 22.56 19.412 21.528C20.252 20.496 20.888 19.356 21.32 18.108C21.752 16.836 21.968 15.54 21.968 14.22C21.968 12.828 21.74 11.496 21.284 10.224C20.828 8.952 20.168 7.812 19.304 6.804C18.464 5.796 17.468 5.004 16.316 4.428C15.164 3.852 13.892 3.564 12.5 3.564C11.06 3.564 9.752 3.864 8.576 4.464C7.424 5.064 6.428 5.88 5.588 6.912C4.772 7.92 4.136 9.06 3.68 10.332C3.248 11.604 3.032 12.9 3.032 14.22ZM28.5552 19.26V8.244H31.0032V18.828C31.0032 23.076 32.4552 25.2 35.3592 25.2C36.7992 25.2 38.1432 24.732 39.3912 23.796C40.6632 22.86 41.5752 21.612 42.1272 20.052V8.244H44.5752V24.048C44.5752 24.696 44.8632 25.032 45.4392 25.056V27C45.1512 27.048 44.9232 27.072 44.7552 27.072C44.6112 27.072 44.4552 27.072 44.2872 27.072C43.7832 27.024 43.3512 26.832 42.9912 26.496C42.6552 26.16 42.4872 25.752 42.4872 25.272L42.4152 22.752C41.5992 24.216 40.4832 25.356 39.0672 26.172C37.6752 26.964 36.1632 27.36 34.5312 27.36C30.5472 27.36 28.5552 24.66 28.5552 19.26ZM59.4702 10.404C57.8382 10.452 56.3982 10.908 55.1502 11.772C53.9262 12.636 53.0622 13.824 52.5582 15.336V27H50.1102V8.244H52.4142V12.744C53.0622 11.424 53.9142 10.356 54.9702 9.54C56.0502 8.724 57.1902 8.268 58.3902 8.172C58.6302 8.148 58.8342 8.136 59.0022 8.136C59.1702 8.136 59.3262 8.148 59.4702 8.172V10.404ZM93.6598 8.244H96.0718L88.0078 27H85.8838L81.9598 17.676L78.0718 27H75.9478L67.8838 8.244H70.2598L77.0998 24.48L80.5558 16.02L77.3878 8.28H79.5838L81.9598 14.364L84.3718 8.28H86.5318L83.3998 16.02L86.8558 24.48L93.6598 8.244ZM106.796 27.36C104.996 27.36 103.388 26.916 101.972 26.028C100.556 25.14 99.4401 23.952 98.6241 22.464C97.8081 20.976 97.4001 19.344 97.4001 17.568C97.4001 15.816 97.7961 14.208 98.5881 12.744C99.4041 11.28 100.52 10.116 101.936 9.252C103.352 8.364 104.96 7.92 106.76 7.92C108.608 7.92 110.228 8.364 111.62 9.252C113.012 10.14 114.092 11.316 114.86 12.78C115.652 14.22 116.048 15.804 116.048 17.532C116.048 17.916 116.036 18.24 116.012 18.504H99.9561C100.076 19.848 100.46 21.048 101.108 22.104C101.756 23.136 102.584 23.964 103.592 24.588C104.6 25.188 105.704 25.488 106.904 25.488C108.128 25.488 109.28 25.176 110.36 24.552C111.44 23.928 112.208 23.112 112.664 22.104L114.788 22.68C114.404 23.592 113.804 24.408 112.988 25.128C112.196 25.824 111.272 26.376 110.216 26.784C109.16 27.168 108.02 27.36 106.796 27.36ZM99.8841 16.74H113.744C113.648 15.396 113.276 14.208 112.628 13.176C111.98 12.12 111.152 11.304 110.144 10.728C109.136 10.128 108.02 9.828 106.796 9.828C105.572 9.828 104.456 10.128 103.448 10.728C102.44 11.304 101.612 12.12 100.964 13.176C100.34 14.208 99.9801 15.396 99.8841 16.74ZM129.005 27.36C127.541 27.36 126.185 26.988 124.937 26.244C123.689 25.476 122.717 24.516 122.021 23.364V27H119.825V0.719999H122.273V12.168C123.113 10.896 124.121 9.876 125.297 9.108C126.473 8.316 127.841 7.92 129.401 7.92C130.721 7.92 131.897 8.196 132.929 8.748C133.985 9.3 134.885 10.044 135.629 10.98C136.373 11.892 136.937 12.936 137.321 14.112C137.705 15.264 137.897 16.452 137.897 17.676C137.897 19.428 137.501 21.036 136.709 22.5C135.941 23.964 134.885 25.14 133.541 26.028C132.197 26.916 130.685 27.36 129.005 27.36ZM128.429 25.2C129.797 25.2 130.997 24.84 132.029 24.12C133.085 23.4 133.913 22.476 134.513 21.348C135.113 20.196 135.413 18.972 135.413 17.676C135.413 16.356 135.125 15.12 134.549 13.968C133.997 12.816 133.217 11.88 132.209 11.16C131.201 10.44 130.037 10.08 128.717 10.08C127.253 10.08 125.957 10.548 124.829 11.484C123.725 12.42 122.873 13.512 122.273 14.76V20.592C122.393 21.456 122.789 22.236 123.461 22.932C124.133 23.628 124.925 24.18 125.837 24.588C126.749 24.996 127.613 25.2 128.429 25.2ZM148.2 27.36C146.664 27.36 145.236 27.108 143.916 26.604C142.62 26.076 141.48 25.308 140.496 24.3L141.504 22.572C142.56 23.556 143.616 24.276 144.672 24.732C145.752 25.164 146.892 25.38 148.092 25.38C149.532 25.38 150.708 25.092 151.62 24.516C152.556 23.916 153.024 23.064 153.024 21.96C153.024 21.216 152.796 20.652 152.34 20.268C151.908 19.86 151.272 19.536 150.432 19.296C149.616 19.056 148.632 18.78 147.48 18.468C146.184 18.108 145.092 17.736 144.204 17.352C143.34 16.944 142.68 16.44 142.224 15.84C141.792 15.216 141.576 14.412 141.576 13.428C141.576 12.228 141.876 11.22 142.476 10.404C143.1 9.588 143.94 8.976 144.996 8.568C146.076 8.136 147.276 7.92 148.596 7.92C150.036 7.92 151.308 8.148 152.412 8.604C153.516 9.06 154.416 9.696 155.112 10.512L153.924 12.168C153.276 11.4 152.472 10.836 151.512 10.476C150.576 10.092 149.556 9.9 148.452 9.9C147.684 9.9 146.952 10.008 146.256 10.224C145.56 10.416 144.984 10.752 144.528 11.232C144.096 11.688 143.88 12.324 143.88 13.14C143.88 14.148 144.252 14.844 144.996 15.228C145.74 15.612 146.868 16.02 148.38 16.452C149.796 16.836 151.032 17.22 152.088 17.604C153.144 17.988 153.96 18.504 154.536 19.152C155.112 19.776 155.4 20.652 155.4 21.78C155.4 23.532 154.74 24.9 153.42 25.884C152.1 26.868 150.36 27.36 148.2 27.36ZM159.446 4.32V0.719999H161.894V4.32H159.446ZM159.446 27V8.244H161.894V27H159.446ZM176.286 26.1C175.998 26.22 175.47 26.436 174.702 26.748C173.934 27.06 173.046 27.216 172.038 27.216C170.982 27.216 170.058 26.916 169.266 26.316C168.474 25.716 168.078 24.816 168.078 23.616V10.188H165.486V8.244H168.078V1.908H170.526V8.244H174.846V10.188H170.526V22.932C170.574 23.628 170.814 24.144 171.246 24.48C171.702 24.792 172.218 24.948 172.794 24.948C173.466 24.948 174.066 24.84 174.594 24.624C175.146 24.384 175.494 24.216 175.638 24.12L176.286 26.1ZM187.128 27.36C185.328 27.36 183.72 26.916 182.304 26.028C180.888 25.14 179.772 23.952 178.956 22.464C178.14 20.976 177.732 19.344 177.732 17.568C177.732 15.816 178.128 14.208 178.92 12.744C179.736 11.28 180.852 10.116 182.268 9.252C183.684 8.364 185.292 7.92 187.092 7.92C188.94 7.92 190.56 8.364 191.952 9.252C193.344 10.14 194.424 11.316 195.192 12.78C195.984 14.22 196.38 15.804 196.38 17.532C196.38 17.916 196.368 18.24 196.344 18.504H180.288C180.408 19.848 180.792 21.048 181.44 22.104C182.088 23.136 182.916 23.964 183.924 24.588C184.932 25.188 186.036 25.488 187.236 25.488C188.46 25.488 189.612 25.176 190.692 24.552C191.772 23.928 192.54 23.112 192.996 22.104L195.12 22.68C194.736 23.592 194.136 24.408 193.32 25.128C192.528 25.824 191.604 26.376 190.548 26.784C189.492 27.168 188.352 27.36 187.128 27.36ZM180.216 16.74H194.076C193.98 15.396 193.608 14.208 192.96 13.176C192.312 12.12 191.484 11.304 190.476 10.728C189.468 10.128 188.352 9.828 187.128 9.828C185.904 9.828 184.788 10.128 183.78 10.728C182.772 11.304 181.944 12.12 181.296 13.176C180.672 14.208 180.312 15.396 180.216 16.74ZM218.509 4.32V0.719999H220.957V4.32H218.509ZM218.509 27V8.244H220.957V27H218.509ZM232.504 27.36C230.968 27.36 229.54 27.108 228.22 26.604C226.924 26.076 225.784 25.308 224.8 24.3L225.808 22.572C226.864 23.556 227.92 24.276 228.976 24.732C230.056 25.164 231.196 25.38 232.396 25.38C233.836 25.38 235.012 25.092 235.924 24.516C236.86 23.916 237.328 23.064 237.328 21.96C237.328 21.216 237.1 20.652 236.644 20.268C236.212 19.86 235.576 19.536 234.736 19.296C233.92 19.056 232.936 18.78 231.784 18.468C230.488 18.108 229.396 17.736 228.508 17.352C227.644 16.944 226.984 16.44 226.528 15.84C226.096 15.216 225.88 14.412 225.88 13.428C225.88 12.228 226.18 11.22 226.78 10.404C227.404 9.588 228.244 8.976 229.3 8.568C230.38 8.136 231.58 7.92 232.9 7.92C234.34 7.92 235.612 8.148 236.716 8.604C237.82 9.06 238.72 9.696 239.416 10.512L238.228 12.168C237.58 11.4 236.776 10.836 235.816 10.476C234.88 10.092 233.86 9.9 232.756 9.9C231.988 9.9 231.256 10.008 230.56 10.224C229.864 10.416 229.288 10.752 228.832 11.232C228.4 11.688 228.184 12.324 228.184 13.14C228.184 14.148 228.556 14.844 229.3 15.228C230.044 15.612 231.172 16.02 232.684 16.452C234.1 16.836 235.336 17.22 236.392 17.604C237.448 17.988 238.264 18.504 238.84 19.152C239.416 19.776 239.704 20.652 239.704 21.78C239.704 23.532 239.044 24.9 237.724 25.884C236.404 26.868 234.664 27.36 232.504 27.36ZM252.747 19.26V8.244H255.195V18.828C255.195 23.076 256.647 25.2 259.551 25.2C260.991 25.2 262.335 24.732 263.583 23.796C264.855 22.86 265.767 21.612 266.319 20.052V8.244H268.767V24.048C268.767 24.696 269.055 25.032 269.631 25.056V27C269.343 27.048 269.115 27.072 268.947 27.072C268.803 27.072 268.647 27.072 268.479 27.072C267.975 27.024 267.543 26.832 267.183 26.496C266.847 26.16 266.679 25.752 266.679 25.272L266.607 22.752C265.791 24.216 264.675 25.356 263.259 26.172C261.867 26.964 260.355 27.36 258.723 27.36C254.739 27.36 252.747 24.66 252.747 19.26ZM290.07 27H287.622V16.524C287.622 14.316 287.286 12.708 286.614 11.7C285.966 10.668 284.958 10.152 283.59 10.152C282.63 10.152 281.682 10.392 280.746 10.872C279.81 11.328 278.982 11.964 278.262 12.78C277.566 13.572 277.062 14.484 276.75 15.516V27H274.302V8.244H276.534V12.492C277.278 11.124 278.37 10.02 279.81 9.18C281.25 8.34 282.81 7.92 284.49 7.92C285.882 7.92 286.986 8.256 287.802 8.928C288.618 9.576 289.194 10.512 289.53 11.736C289.89 12.936 290.07 14.364 290.07 16.02V27ZM294.03 17.676C294.03 15.9 294.39 14.28 295.11 12.816C295.854 11.328 296.874 10.14 298.17 9.252C299.466 8.364 300.942 7.92 302.598 7.92C304.158 7.92 305.55 8.34 306.774 9.18C308.022 9.996 308.994 10.992 309.69 12.168V0.719999H312.138V24.048C312.138 24.696 312.426 25.032 313.002 25.056V27C312.522 27.072 312.15 27.096 311.886 27.072C311.358 27.048 310.902 26.856 310.518 26.496C310.158 26.112 309.978 25.68 309.978 25.2V23.364C309.234 24.588 308.226 25.56 306.954 26.28C305.682 27 304.362 27.36 302.994 27.36C301.698 27.36 300.498 27.096 299.394 26.568C298.29 26.04 297.33 25.32 296.514 24.408C295.722 23.496 295.11 22.464 294.678 21.312C294.246 20.136 294.03 18.924 294.03 17.676ZM309.69 20.556V14.76C309.378 13.896 308.874 13.116 308.178 12.42C307.482 11.7 306.69 11.136 305.802 10.728C304.938 10.296 304.074 10.08 303.21 10.08C301.866 10.08 300.69 10.452 299.682 11.196C298.698 11.916 297.93 12.864 297.378 14.04C296.826 15.192 296.55 16.404 296.55 17.676C296.55 19.02 296.85 20.268 297.45 21.42C298.074 22.572 298.914 23.496 299.97 24.192C301.026 24.864 302.214 25.2 303.534 25.2C304.35 25.2 305.202 24.996 306.09 24.588C307.002 24.156 307.794 23.592 308.466 22.896C309.162 22.2 309.57 21.42 309.69 20.556ZM325.784 27.36C323.984 27.36 322.376 26.916 320.96 26.028C319.544 25.14 318.428 23.952 317.612 22.464C316.796 20.976 316.388 19.344 316.388 17.568C316.388 15.816 316.784 14.208 317.576 12.744C318.392 11.28 319.508 10.116 320.924 9.252C322.34 8.364 323.948 7.92 325.748 7.92C327.596 7.92 329.216 8.364 330.608 9.252C332 10.14 333.08 11.316 333.848 12.78C334.64 14.22 335.036 15.804 335.036 17.532C335.036 17.916 335.024 18.24 335 18.504H318.944C319.064 19.848 319.448 21.048 320.096 22.104C320.744 23.136 321.572 23.964 322.58 24.588C323.588 25.188 324.692 25.488 325.892 25.488C327.116 25.488 328.268 25.176 329.348 24.552C330.428 23.928 331.196 23.112 331.652 22.104L333.776 22.68C333.392 23.592 332.792 24.408 331.976 25.128C331.184 25.824 330.26 26.376 329.204 26.784C328.148 27.168 327.008 27.36 325.784 27.36ZM318.872 16.74H332.732C332.636 15.396 332.264 14.208 331.616 13.176C330.968 12.12 330.14 11.304 329.132 10.728C328.124 10.128 327.008 9.828 325.784 9.828C324.56 9.828 323.444 10.128 322.436 10.728C321.428 11.304 320.6 12.12 319.952 13.176C319.328 14.208 318.968 15.396 318.872 16.74ZM348.173 10.404C346.541 10.452 345.101 10.908 343.853 11.772C342.629 12.636 341.765 13.824 341.261 15.336V27H338.813V8.244H341.117V12.744C341.765 11.424 342.617 10.356 343.673 9.54C344.753 8.724 345.893 8.268 347.093 8.172C347.333 8.148 347.537 8.136 347.705 8.136C347.873 8.136 348.029 8.148 348.173 8.172V10.404ZM367.902 27.36C366.078 27.36 364.458 26.916 363.042 26.028C361.626 25.116 360.51 23.928 359.694 22.464C358.878 20.976 358.47 19.344 358.47 17.568C358.47 15.792 358.866 14.184 359.658 12.744C360.45 11.28 361.554 10.116 362.97 9.252C364.386 8.364 366.018 7.92 367.866 7.92C369.618 7.92 371.154 8.328 372.474 9.144C373.818 9.936 374.826 11.016 375.498 12.384L373.122 13.14C372.594 12.18 371.85 11.436 370.89 10.908C369.954 10.356 368.91 10.08 367.758 10.08C366.486 10.08 365.334 10.404 364.302 11.052C363.294 11.7 362.478 12.6 361.854 13.752C361.254 14.88 360.954 16.152 360.954 17.568C360.954 18.984 361.266 20.268 361.89 21.42C362.514 22.572 363.342 23.496 364.374 24.192C365.406 24.864 366.546 25.2 367.794 25.2C368.61 25.2 369.402 25.056 370.17 24.768C370.938 24.48 371.598 24.096 372.15 23.616C372.702 23.112 373.074 22.572 373.266 21.996L375.678 22.716C375.342 23.604 374.79 24.408 374.022 25.128C373.254 25.824 372.342 26.376 371.286 26.784C370.23 27.168 369.102 27.36 367.902 27.36ZM387.34 27.36C385.54 27.36 383.932 26.916 382.516 26.028C381.124 25.14 380.032 23.964 379.24 22.5C378.448 21.012 378.052 19.404 378.052 17.676C378.052 15.924 378.448 14.316 379.24 12.852C380.056 11.364 381.16 10.176 382.552 9.288C383.968 8.376 385.564 7.92 387.34 7.92C389.14 7.92 390.736 8.376 392.128 9.288C393.544 10.176 394.648 11.364 395.44 12.852C396.256 14.316 396.664 15.924 396.664 17.676C396.664 19.404 396.268 21.012 395.476 22.5C394.684 23.964 393.58 25.14 392.164 26.028C390.772 26.916 389.164 27.36 387.34 27.36ZM380.536 17.712C380.536 19.104 380.836 20.376 381.436 21.528C382.06 22.656 382.888 23.556 383.92 24.228C384.952 24.876 386.092 25.2 387.34 25.2C388.588 25.2 389.728 24.864 390.76 24.192C391.792 23.52 392.62 22.608 393.244 21.456C393.868 20.304 394.18 19.032 394.18 17.64C394.18 16.248 393.868 14.976 393.244 13.824C392.62 12.672 391.792 11.76 390.76 11.088C389.728 10.416 388.588 10.08 387.34 10.08C386.116 10.08 384.988 10.428 383.956 11.124C382.924 11.796 382.096 12.708 381.472 13.86C380.848 15.012 380.536 16.296 380.536 17.712ZM416.527 27H414.079V16.524C414.079 14.316 413.743 12.708 413.071 11.7C412.423 10.668 411.415 10.152 410.047 10.152C409.087 10.152 408.139 10.392 407.203 10.872C406.267 11.328 405.439 11.964 404.719 12.78C404.023 13.572 403.519 14.484 403.207 15.516V27H400.759V8.244H402.991V12.492C403.735 11.124 404.827 10.02 406.267 9.18C407.707 8.34 409.267 7.92 410.947 7.92C412.339 7.92 413.443 8.256 414.259 8.928C415.075 9.576 415.651 10.512 415.987 11.736C416.347 12.936 416.527 14.364 416.527 16.02V27ZM427.903 27.36C426.367 27.36 424.939 27.108 423.619 26.604C422.323 26.076 421.183 25.308 420.199 24.3L421.207 22.572C422.263 23.556 423.319 24.276 424.375 24.732C425.455 25.164 426.595 25.38 427.795 25.38C429.235 25.38 430.411 25.092 431.323 24.516C432.259 23.916 432.727 23.064 432.727 21.96C432.727 21.216 432.499 20.652 432.043 20.268C431.611 19.86 430.975 19.536 430.135 19.296C429.319 19.056 428.335 18.78 427.183 18.468C425.887 18.108 424.795 17.736 423.907 17.352C423.043 16.944 422.383 16.44 421.927 15.84C421.495 15.216 421.279 14.412 421.279 13.428C421.279 12.228 421.579 11.22 422.179 10.404C422.803 9.588 423.643 8.976 424.699 8.568C425.779 8.136 426.979 7.92 428.299 7.92C429.739 7.92 431.011 8.148 432.115 8.604C433.219 9.06 434.119 9.696 434.815 10.512L433.627 12.168C432.979 11.4 432.175 10.836 431.215 10.476C430.279 10.092 429.259 9.9 428.155 9.9C427.387 9.9 426.655 10.008 425.959 10.224C425.263 10.416 424.687 10.752 424.231 11.232C423.799 11.688 423.583 12.324 423.583 13.14C423.583 14.148 423.955 14.844 424.699 15.228C425.443 15.612 426.571 16.02 428.083 16.452C429.499 16.836 430.735 17.22 431.791 17.604C432.847 17.988 433.663 18.504 434.239 19.152C434.815 19.776 435.103 20.652 435.103 21.78C435.103 23.532 434.443 24.9 433.123 25.884C431.803 26.868 430.063 27.36 427.903 27.36ZM448.149 26.1C447.861 26.22 447.333 26.436 446.565 26.748C445.797 27.06 444.909 27.216 443.901 27.216C442.845 27.216 441.921 26.916 441.129 26.316C440.337 25.716 439.941 24.816 439.941 23.616V10.188H437.349V8.244H439.941V1.908H442.389V8.244H446.709V10.188H442.389V22.932C442.437 23.628 442.677 24.144 443.109 24.48C443.565 24.792 444.081 24.948 444.657 24.948C445.329 24.948 445.929 24.84 446.457 24.624C447.009 24.384 447.357 24.216 447.501 24.12L448.149 26.1ZM460.568 10.404C458.936 10.452 457.496 10.908 456.248 11.772C455.024 12.636 454.16 13.824 453.656 15.336V27H451.208V8.244H453.512V12.744C454.16 11.424 455.012 10.356 456.068 9.54C457.148 8.724 458.288 8.268 459.488 8.172C459.728 8.148 459.932 8.136 460.1 8.136C460.268 8.136 460.424 8.148 460.568 8.172V10.404ZM463.649 19.26V8.244H466.097V18.828C466.097 23.076 467.549 25.2 470.453 25.2C471.893 25.2 473.237 24.732 474.485 23.796C475.757 22.86 476.669 21.612 477.221 20.052V8.244H479.669V24.048C479.669 24.696 479.957 25.032 480.533 25.056V27C480.245 27.048 480.017 27.072 479.849 27.072C479.705 27.072 479.549 27.072 479.381 27.072C478.877 27.024 478.445 26.832 478.085 26.496C477.749 26.16 477.581 25.752 477.581 25.272L477.509 22.752C476.693 24.216 475.577 25.356 474.161 26.172C472.769 26.964 471.257 27.36 469.625 27.36C465.641 27.36 463.649 24.66 463.649 19.26ZM493.34 27.36C491.516 27.36 489.896 26.916 488.48 26.028C487.064 25.116 485.948 23.928 485.132 22.464C484.316 20.976 483.908 19.344 483.908 17.568C483.908 15.792 484.304 14.184 485.096 12.744C485.888 11.28 486.992 10.116 488.408 9.252C489.824 8.364 491.456 7.92 493.304 7.92C495.056 7.92 496.592 8.328 497.912 9.144C499.256 9.936 500.264 11.016 500.936 12.384L498.56 13.14C498.032 12.18 497.288 11.436 496.328 10.908C495.392 10.356 494.348 10.08 493.196 10.08C491.924 10.08 490.772 10.404 489.74 11.052C488.732 11.7 487.916 12.6 487.292 13.752C486.692 14.88 486.392 16.152 486.392 17.568C486.392 18.984 486.704 20.268 487.328 21.42C487.952 22.572 488.78 23.496 489.812 24.192C490.844 24.864 491.984 25.2 493.232 25.2C494.048 25.2 494.84 25.056 495.608 24.768C496.376 24.48 497.036 24.096 497.588 23.616C498.14 23.112 498.512 22.572 498.704 21.996L501.116 22.716C500.78 23.604 500.228 24.408 499.46 25.128C498.692 25.824 497.78 26.376 496.724 26.784C495.668 27.168 494.54 27.36 493.34 27.36ZM513.962 26.1C513.674 26.22 513.146 26.436 512.378 26.748C511.61 27.06 510.722 27.216 509.714 27.216C508.658 27.216 507.734 26.916 506.942 26.316C506.15 25.716 505.754 24.816 505.754 23.616V10.188H503.162V8.244H505.754V1.908H508.202V8.244H512.522V10.188H508.202V22.932C508.25 23.628 508.49 24.144 508.922 24.48C509.378 24.792 509.894 24.948 510.47 24.948C511.142 24.948 511.742 24.84 512.27 24.624C512.822 24.384 513.17 24.216 513.314 24.12L513.962 26.1ZM517.02 4.32V0.719999H519.468V4.32H517.02ZM517.02 27V8.244H519.468V27H517.02ZM532.852 27.36C531.052 27.36 529.444 26.916 528.028 26.028C526.636 25.14 525.544 23.964 524.752 22.5C523.96 21.012 523.564 19.404 523.564 17.676C523.564 15.924 523.96 14.316 524.752 12.852C525.568 11.364 526.672 10.176 528.064 9.288C529.48 8.376 531.076 7.92 532.852 7.92C534.652 7.92 536.248 8.376 537.64 9.288C539.056 10.176 540.16 11.364 540.952 12.852C541.768 14.316 542.176 15.924 542.176 17.676C542.176 19.404 541.78 21.012 540.988 22.5C540.196 23.964 539.092 25.14 537.676 26.028C536.284 26.916 534.676 27.36 532.852 27.36ZM526.048 17.712C526.048 19.104 526.348 20.376 526.948 21.528C527.572 22.656 528.4 23.556 529.432 24.228C530.464 24.876 531.604 25.2 532.852 25.2C534.1 25.2 535.24 24.864 536.272 24.192C537.304 23.52 538.132 22.608 538.756 21.456C539.38 20.304 539.692 19.032 539.692 17.64C539.692 16.248 539.38 14.976 538.756 13.824C538.132 12.672 537.304 11.76 536.272 11.088C535.24 10.416 534.1 10.08 532.852 10.08C531.628 10.08 530.5 10.428 529.468 11.124C528.436 11.796 527.608 12.708 526.984 13.86C526.36 15.012 526.048 16.296 526.048 17.712ZM562.038 27H559.59V16.524C559.59 14.316 559.254 12.708 558.582 11.7C557.934 10.668 556.926 10.152 555.558 10.152C554.598 10.152 553.65 10.392 552.714 10.872C551.778 11.328 550.95 11.964 550.23 12.78C549.534 13.572 549.03 14.484 548.718 15.516V27H546.27V8.244H548.502V12.492C549.246 11.124 550.338 10.02 551.778 9.18C553.218 8.34 554.778 7.92 556.458 7.92C557.85 7.92 558.954 8.256 559.77 8.928C560.586 9.576 561.162 10.512 561.498 11.736C561.858 12.936 562.038 14.364 562.038 16.02V27Z" fill="white"/>
</svg>
